<svg width="1200" height="800" version="1.1" xmlns="http://www.w3.org/2000/svg">
<ellipse cx="200" cy="200" rx="50" ry="50" style="fill:transparent;stroke:#ff0000;stroke-width:3"/>
<line x1="0" y1="0" x2 ="300" y2="0" style="stroke:#00ff00;stroke-width:3"/>
<line x1="300" y1="0" x2 ="300" y2="200" style="stroke:#00ff00;stroke-width:3"/>
<line x1="300" y1="200" x2 ="0" y2="200" style="stroke:#00ff00;stroke-width:3"/>
<line x1="0" y1="200" x2 ="0" y2="0" style="stroke:#00ff00;stroke-width:3"/>
<text x="400" y="50" style="color:#000000;font-size:48"> Hello World!</text>
<line x1="50" y1="50" x2 ="200" y2="20" style="stroke:#098632;stroke-width:3"/>
<line x1="30" y1="45" x2 ="100" y2="80" style="stroke:#ab23f6;stroke-width:3"/>
<line x1="100" y1="80" x2 ="32" y2="90" style="stroke:#ab23f6;stroke-width:3"/>
<line x1="32" y1="90" x2 ="30" y2="45" style="stroke:#ab23f6;stroke-width:3"/>
<ellipse cx="400" cy="400" rx="50" ry="50" style="fill:transparent;stroke:#ff0000;stroke-width:3"/>
<line x1="200" y1="200" x2 ="500" y2="200" style="stroke:#00ff00;stroke-width:3"/>
<line x1="500" y1="200" x2 ="500" y2="400" style="stroke:#00ff00;stroke-width:3"/>
<line x1="500" y1="400" x2 ="200" y2="400" style="stroke:#00ff00;stroke-width:3"/>
<line x1="200" y1="400" x2 ="200" y2="200" style="stroke:#00ff00;stroke-width:3"/>
<text x="600" y="250" style="color:#000000;font-size:48"> Hello World!</text>
<line x1="250" y1="250" x2 ="400" y2="220" style="stroke:#098632;stroke-width:3"/>
<line x1="230" y1="245" x2 ="300" y2="280" style="stroke:#ab23f6;stroke-width:3"/>
<line x1="300" y1="280" x2 ="232" y2="290" style="stroke:#ab23f6;stroke-width:3"/>
<line x1="232" y1="290" x2 ="230" y2="245" style="stroke:#ab23f6;stroke-width:3"/>
</svg>
